<svg aria-hidden="true" style="position: absolute; width: 0; height: 0; overflow: hidden;" version="1.1" xmlns="http://www.w3.org/2000/svg" xmlns:xlink="http://www.w3.org/1999/xlink">
<defs>
<symbol id="icon-black-star" viewBox="0 0 34 32">
<path d="M15.277 1.031c0.579-1.375 2.551-1.375 3.13 0l3.417 8.116c0.244 0.58 0.796 0.976 1.43 1.026l8.869 0.702c1.503 0.119 2.112 1.972 0.967 2.941l-6.757 5.718c-0.483 0.408-0.694 1.049-0.546 1.66l2.064 8.55c0.35 1.449-1.245 2.594-2.532 1.817l-7.593-4.582c-0.542-0.327-1.224-0.327-1.767 0l-7.593 4.582c-1.287 0.776-2.882-0.369-2.532-1.817l2.064-8.55c0.147-0.611-0.063-1.252-0.546-1.66l-6.757-5.718c-1.145-0.969-0.536-2.822 0.967-2.941l8.869-0.702c0.633-0.050 1.185-0.446 1.429-1.026l3.417-8.116z"></path>
</symbol>
<symbol id="icon-burger" viewBox="0 0 32 32">
<path d="M5.333 8h21.333v2.667h-21.333v-2.667zM5.333 14.667h21.333v2.667h-21.333v-2.667zM5.333 21.333h21.333v2.667h-21.333v-2.667z"></path>
</symbol>
<symbol id="icon-cheese" viewBox="0 0 32 32">
<path fill="#fff" style="fill: var(--color1, #fff)" d="M20.213 2.667c-0.305-0.046-0.616 0.016-0.88 0.173l-16 9.333c-0.063 0.037-0.122 0.082-0.173 0.133l-0.133 0.107c-0.091 0.105-0.167 0.222-0.227 0.347-0.095 0.176-0.141 0.374-0.133 0.573v13.333c0 0.354 0.14 0.693 0.391 0.943s0.589 0.391 0.943 0.391h24c0.354 0 0.693-0.141 0.943-0.391s0.391-0.589 0.391-0.943v-13.333c0.005-2.574-0.912-5.065-2.585-7.022s-3.991-3.25-6.535-3.645zM20.213 5.4c1.603 0.328 3.069 1.135 4.204 2.313s1.887 2.673 2.156 4.287h-17.64l11.28-6.6zM26.667 25.333h-21.333v-10.667h21.333v10.667z"></path>
<path fill="#fff" style="fill: var(--color1, #fff)" d="M8.667 24c1.105 0 2-0.895 2-2s-0.895-2-2-2c-1.105 0-2 0.895-2 2s0.895 2 2 2z"></path>
<path fill="#fff" style="fill: var(--color1, #fff)" d="M15.333 20c1.105 0 2-0.895 2-2s-0.895-2-2-2c-1.105 0-2 0.895-2 2s0.895 2 2 2z"></path>
<path fill="#fff" style="fill: var(--color1, #fff)" d="M22.667 24c1.473 0 2.667-1.194 2.667-2.667s-1.194-2.667-2.667-2.667c-1.473 0-2.667 1.194-2.667 2.667s1.194 2.667 2.667 2.667z"></path>
</symbol>
<symbol id="icon-close" viewBox="0 0 32 32">
<path fill="#fff" style="fill: var(--color1, #fff)" d="M21.589 8.459l-5.657 5.656-5.656-5.656-1.885 1.885 5.656 5.656-5.656 5.656 1.885 1.885 5.656-5.656 5.657 5.656 1.885-1.885-5.656-5.656 5.656-5.656-1.885-1.885z"></path>
</symbol>
<symbol id="icon-down-arrow" viewBox="0 0 32 32">
<path fill="#fff" style="fill: var(--color1, #fff); stroke: var(--color1, #fff)" stroke="#fff" stroke-linejoin="miter" stroke-linecap="butt" stroke-miterlimit="4" stroke-width="1" d="M23.116 12.177c0.098-0.098 0.256-0.098 0.354 0l0.354 0.354c0.098 0.098 0.098 0.256 0 0.354l-7.646 7.646c-0.098 0.098-0.256 0.098-0.354 0l-7.646-7.646c-0.098-0.098-0.098-0.256 0-0.354l0.354-0.354c0.098-0.098 0.256-0.098 0.354 0l7.116 7.116 7.116-7.116z"></path>
</symbol>
<symbol id="icon-email" viewBox="0 0 32 32">
<path d="M26.667 5.333h-21.333c-1.471 0-2.667 1.196-2.667 2.667v16c0 1.471 1.196 2.667 2.667 2.667h21.333c1.471 0 2.667-1.196 2.667-2.667v-16c0-1.471-1.196-2.667-2.667-2.667zM26.667 8v0.681l-10.667 8.297-10.667-8.296v-0.683h21.333zM5.333 24v-11.941l9.848 7.66c0.233 0.183 0.522 0.283 0.819 0.283s0.585-0.1 0.819-0.283l9.848-7.66 0.003 11.941h-21.336z"></path>
</symbol>
<symbol id="icon-empty-star" viewBox="0 0 34 32">
<path stroke-linejoin="miter" stroke-linecap="butt" stroke-miterlimit="4" stroke-width="1.6842" d="M16.053 1.359c0.29-0.688 1.289-0.688 1.579 0l3.416 8.115c0.368 0.873 1.197 1.465 2.14 1.539l8.868 0.702c0.771 0.061 1.046 0.986 0.49 1.457l-6.758 5.719c-0.724 0.612-1.044 1.579-0.821 2.502l2.066 8.549c0.167 0.694-0.609 1.303-1.28 0.898h-0.002l-7.59-4.581c-0.81-0.489-1.828-0.489-2.638 0l-7.592 4.581c-0.671 0.405-1.447-0.204-1.28-0.898l2.066-8.549c0.223-0.923-0.097-1.889-0.821-2.502l-6.758-5.719c-0.556-0.472-0.281-1.396 0.49-1.457l8.868-0.702c0.943-0.075 1.772-0.666 2.14-1.539l3.416-8.115z"></path>
</symbol>
<symbol id="icon-facebook" viewBox="0 0 32 32">
<path fill="#fff" style="fill: var(--color1, #fff)" d="M29.333 16.404c0-7.409-5.969-13.415-13.333-13.415s-13.333 6.006-13.333 13.415c0 6.696 4.876 12.245 11.25 13.252v-9.374h-3.385v-3.878h3.385v-2.955c0-3.362 1.991-5.219 5.036-5.219 1.459 0 2.985 0.262 2.985 0.262v3.301h-1.681c-1.656 0-2.173 1.034-2.173 2.095v2.516h3.698l-0.591 3.878h-3.107v9.374c6.374-1.006 11.25-6.556 11.25-13.252z"></path>
</symbol>
<symbol id="icon-Favicon" viewBox="0 0 32 32">
<path fill="#d1ddcc" style="fill: var(--color2, #d1ddcc)" d="M0 0h32v32h-32v-32z"></path>
<path fill="#010400" style="fill: var(--color3, #010400)" d="M27.806 4.972c-1.22-0.041-2.436-0.081-3.657-0.041-5.669 0.239-12.089 1.243-16.121 5.659-1.923 2.107-2.967 4.718-2.82 7.584 0.096 1.621 0.525 3.205 1.26 4.653-0.007 0.012-0.014 0.024-0.020 0.037-0.004 0.006-0.007 0.013-0.011 0.019-0.216 0.369-0.673 0.882-1.134 1.4-0.583 0.655-1.173 1.317-1.289 1.702-0.029 0.098-0.008 0.217 0.020 0.313 0.095 0.322 0.427 0.574 0.687 0.772l0.019 0.015c0.57-0.561 1.088-1.17 1.606-1.779l0.041-0.049 1.048-1.28c2.784 1.578 5.517 2.076 8.639 1.21 3.823-1.061 6.779-3.781 8.684-7.198 2.121-3.804 3.098-8.689 3.24-13.011l-0.194-0.006zM22.268 8.785c0.015 0.004 0.029 0.007 0.043 0.011 0.136 0.034 0.259 0.065 0.374 0.157 0.123 0.098 0.219 0.254 0.211 0.413-0.010 0.191-0.080 0.287-0.211 0.42-0.409 0.414-0.904 0.778-1.389 1.135-0.215 0.158-0.427 0.314-0.63 0.473-1.284 0.994-2.55 2.011-3.797 3.051 0.787-0.191 3.427-0.643 4.114-0.408 0.212 0.073 0.283 0.178 0.37 0.376-0.019 0.293-0.108 0.472-0.388 0.595-0.127 0.056-1.074 0.148-2.136 0.252-1.209 0.118-2.569 0.25-3.035 0.36-0.296 0.070-0.529 0.168-0.777 0.342-0.375 0.263-0.715 0.592-1.050 0.917-0.124 0.121-0.248 0.241-0.373 0.357-1.1 1.021-2.18 2.051-3.235 3.12 0.749 0.166 1.852 0.113 2.918 0.061 1.202-0.058 2.359-0.114 2.918 0.148 0.091 0.117 0.118 0.242 0.105 0.391-0.011 0.12-0.079 0.196-0.164 0.273-0.461 0.42-5.010 0.286-5.716 0.205-0.029-0.005-0.058-0.009-0.088-0.015-0.157-0.027-0.332-0.057-0.48-0.026-1.142 0.235-2.707 2.005-3.387 2.891l0.042-0.097c0.317-0.74 0.636-1.484 1.077-2.16 0.747-1.146 2.867-3.269 3.907-4.273 0.165-0.159 0.358-0.322 0.556-0.488 0.438-0.369 0.905-0.762 1.164-1.198 0.261-0.44 0.416-1.359 0.579-2.324 0.205-1.213 0.422-2.497 0.875-2.992 0.132-0.144 0.172-0.152 0.353-0.171 0.179 0.078 0.293 0.155 0.395 0.328 0.074 0.127 0.084 0.253 0.064 0.394-0.047 0.342-0.167 0.701-0.284 1.053-0.063 0.19-0.126 0.378-0.176 0.56-0.17 0.618-0.299 1.246-0.428 1.873-0.014 0.071-0.029 0.142-0.044 0.213 0.6-0.578 1.274-1.091 1.943-1.601 0.217-0.165 0.433-0.33 0.645-0.496 0.322-0.252 0.645-0.503 0.969-0.754 1.409-1.095 2.826-2.195 4.166-3.364z"></path>
</symbol>
<symbol id="icon-health" viewBox="0 0 32 32">
<path fill="#fff" style="fill: var(--color1, #fff)" d="M26.199 7.048l-7.532 4.349v-8.697h-5.333v8.697l-7.532-4.349-2.667 4.62 7.531 4.348-7.531 4.348 2.667 4.62 7.532-4.348v8.697h5.333v-8.697l7.532 4.348 2.667-4.62-7.531-4.348 7.531-4.348-2.667-4.62z"></path>
</symbol>
<symbol id="icon-instagram" viewBox="0 0 32 32">
<path fill="#fff" style="fill: var(--color1, #fff)" d="M15.998 6.161c3.206 0 3.585 0.014 4.846 0.071 1.172 0.052 1.804 0.248 2.226 0.412 0.558 0.216 0.961 0.478 1.378 0.895 0.422 0.422 0.679 0.82 0.9 1.378 0.164 0.422 0.361 1.059 0.412 2.226 0.056 1.266 0.071 1.645 0.071 4.847s-0.014 3.585-0.071 4.847c-0.052 1.172-0.248 1.804-0.412 2.227-0.216 0.558-0.478 0.961-0.895 1.377-0.422 0.422-0.82 0.679-1.378 0.9-0.422 0.164-1.060 0.361-2.226 0.412-1.266 0.056-1.645 0.071-4.847 0.071s-3.585-0.014-4.847-0.071c-1.172-0.052-1.804-0.248-2.226-0.412-0.558-0.216-0.961-0.478-1.378-0.895-0.422-0.422-0.679-0.82-0.9-1.378-0.164-0.422-0.361-1.060-0.412-2.226-0.056-1.266-0.071-1.645-0.071-4.847s0.014-3.585 0.071-4.847c0.052-1.172 0.248-1.804 0.412-2.226 0.216-0.558 0.478-0.961 0.895-1.378 0.422-0.422 0.82-0.679 1.378-0.9 0.422-0.164 1.059-0.361 2.226-0.412 1.261-0.056 1.641-0.071 4.847-0.071h0.001zM15.998 4.001c-3.258 0-3.665 0.014-4.945 0.071-1.275 0.056-2.151 0.262-2.91 0.558-0.792 0.309-1.462 0.717-2.127 1.387-0.67 0.666-1.078 1.336-1.387 2.123-0.295 0.764-0.502 1.636-0.558 2.91-0.056 1.285-0.071 1.692-0.071 4.949s0.014 3.665 0.071 4.945c0.056 1.275 0.262 2.151 0.558 2.91 0.31 0.792 0.717 1.462 1.387 2.127 0.665 0.665 1.336 1.078 2.123 1.383 0.764 0.295 1.636 0.502 2.91 0.558 1.279 0.056 1.687 0.071 4.945 0.071s3.666-0.014 4.945-0.071c1.275-0.056 2.151-0.262 2.91-0.558 0.787-0.305 1.458-0.717 2.123-1.383s1.078-1.336 1.383-2.123c0.295-0.764 0.502-1.635 0.558-2.91 0.056-1.279 0.071-1.687 0.071-4.945s-0.014-3.665-0.071-4.945c-0.056-1.275-0.262-2.151-0.558-2.91-0.295-0.797-0.703-1.467-1.373-2.133-0.665-0.665-1.336-1.078-2.123-1.383-0.764-0.295-1.635-0.502-2.91-0.558-1.284-0.061-1.692-0.075-4.949-0.075l-0.001 0.001z"></path>
<path fill="#fff" style="fill: var(--color1, #fff)" d="M15.998 9.836c-3.402 0-6.163 2.76-6.163 6.163s2.76 6.163 6.163 6.163c3.403 0 6.163-2.76 6.163-6.163s-2.76-6.163-6.163-6.163zM15.998 19.997c-2.208 0-3.998-1.79-3.998-3.998s1.79-3.998 3.998-3.998c2.208 0 3.998 1.79 3.998 3.998s-1.79 3.998-3.998 3.998z"></path>
<path fill="#fff" style="fill: var(--color1, #fff)" d="M23.843 9.593c0 0.795-0.644 1.439-1.439 1.439s-1.439-0.644-1.439-1.439 0.644-1.439 1.439-1.439c0.795 0 1.439 0.644 1.439 1.439z"></path>
</symbol>
<symbol id="icon-linkedIn" viewBox="0 0 32 32">
<path fill="#fff" style="fill: var(--color1, #fff)" d="M25.75 4h-19.5c-1.237 0-2.25 1.013-2.25 2.25v19.5c0 1.237 1.013 2.25 2.25 2.25h19.5c1.237 0 2.25-1.013 2.25-2.25v-19.5c0-1.237-1.013-2.25-2.25-2.25zM13 23.5h-3v-10.5h3v10.5zM11.5 11.5c-0.829 0-1.5-0.671-1.5-1.5s0.671-1.5 1.5-1.5c0.829 0 1.5 0.671 1.5 1.5s-0.671 1.5-1.5 1.5zM23.5 23.5h-3v-6c0-0.829-0.671-1.5-1.5-1.5s-1.5 0.671-1.5 1.5v6h-3v-10.5h3v1.861c0.619-0.848 1.565-1.861 2.625-1.861 1.866 0 3.375 1.679 3.375 3.75v6.75z"></path>
</symbol>
<symbol id="icon-Logo" viewBox="0 0 66 32">
<path fill="#fff" style="fill: var(--color1, #fff)" d="M61.107 16.854c-0.768-0.025-1.534-0.051-2.302-0.025-3.57 0.148-7.612 0.772-10.15 3.512-1.211 1.308-1.868 2.928-1.775 4.707 0.061 1.006 0.331 1.989 0.794 2.888-0.004 0.008-0.009 0.015-0.013 0.023-0.002 0.004-0.005 0.008-0.007 0.012-0.136 0.229-0.424 0.548-0.714 0.869-0.367 0.407-0.738 0.817-0.811 1.057-0.019 0.061-0.005 0.135 0.013 0.194 0.060 0.2 0.269 0.356 0.432 0.479l0.012 0.009c0.359-0.348 0.685-0.726 1.011-1.104l0.026-0.030 0.66-0.794c1.753 0.98 3.473 1.289 5.439 0.751 2.407-0.658 4.268-2.347 5.467-4.468 1.336-2.361 1.951-5.394 2.040-8.076l-0.122-0.004zM57.62 19.22c0.009 0.002 0.019 0.005 0.027 0.007 0.086 0.021 0.163 0.041 0.236 0.097 0.077 0.061 0.138 0.157 0.133 0.257-0.006 0.119-0.050 0.178-0.133 0.261-0.258 0.257-0.569 0.483-0.875 0.704-0.135 0.098-0.269 0.195-0.397 0.294-0.809 0.617-1.605 1.248-2.39 1.894 0.496-0.118 2.158-0.399 2.59-0.253 0.134 0.046 0.179 0.11 0.233 0.233-0.012 0.182-0.068 0.293-0.244 0.369-0.080 0.035-0.676 0.092-1.345 0.156-0.762 0.073-1.617 0.155-1.91 0.223-0.186 0.043-0.333 0.105-0.489 0.213-0.236 0.163-0.45 0.367-0.661 0.569-0.078 0.075-0.156 0.149-0.235 0.221-0.693 0.634-1.372 1.273-2.037 1.936 0.472 0.103 1.166 0.070 1.837 0.038 0.757-0.036 1.485-0.070 1.837 0.092 0.058 0.073 0.074 0.15 0.067 0.243-0.007 0.075-0.050 0.121-0.103 0.17-0.291 0.261-3.155 0.177-3.599 0.128-0.018-0.003-0.037-0.006-0.056-0.009-0.099-0.017-0.209-0.035-0.303-0.016-0.719 0.146-1.705 1.244-2.133 1.795l0.026-0.060c0.2-0.459 0.4-0.921 0.678-1.341 0.47-0.712 1.805-2.029 2.46-2.652 0.104-0.099 0.225-0.2 0.35-0.303 0.276-0.229 0.57-0.473 0.733-0.744 0.164-0.273 0.262-0.844 0.364-1.442 0.129-0.753 0.265-1.55 0.551-1.858 0.083-0.089 0.108-0.095 0.222-0.106 0.113 0.049 0.185 0.096 0.249 0.204 0.047 0.079 0.053 0.157 0.040 0.244-0.029 0.212-0.105 0.435-0.179 0.653-0.040 0.118-0.080 0.235-0.111 0.348-0.107 0.384-0.188 0.773-0.269 1.163-0.009 0.044-0.018 0.088-0.028 0.132 0.378-0.359 0.802-0.677 1.223-0.994 0.137-0.102 0.273-0.205 0.406-0.308 0.203-0.156 0.406-0.312 0.61-0.468 0.887-0.679 1.779-1.362 2.623-2.088z"></path>
<path fill="#fff" style="fill: var(--color1, #fff)" d="M5.245 0.035c-0.014 0.001-0.028 0.004-0.041 0.007-1.524 0.18-2.903 0.867-3.863 2.064-1.176 1.466-1.498 3.339-1.274 5.163 0.194 1.58 0.927 3.073 2.221 4.055 1.293 0.981 2.796 1.259 4.392 1.136 1.553-0.21 2.953-0.903 3.918-2.145 1.119-1.441 1.427-3.344 1.183-5.111-0.222-1.605-1.032-3.1-2.356-4.078-1.2-0.886-2.693-1.246-4.179-1.091zM5.743 2.082c0.834-0.010 1.589 0.144 2.245 0.679 0.803 0.655 1.166 1.688 1.258 2.683 0.119 1.281-0.023 2.795-0.896 3.819-0.601 0.705-1.373 0.987-2.281 1.066-0.017 0.002-0.034 0.004-0.051 0.005-0.771 0.039-1.574-0.186-2.17-0.675-0.819-0.672-1.165-1.694-1.252-2.712-0.109-1.275-0.008-2.829 0.876-3.849 0.599-0.691 1.376-0.952 2.271-1.016z"></path>
<path fill="#fff" style="fill: var(--color1, #fff)" d="M23.784 3.25c-0.005 0.001-0.011 0.001-0.016 0.002-1.041 0.099-1.93 0.506-2.608 1.307-0.847 1.001-1.136 2.406-1.010 3.68 0.106 1.073 0.553 2.133 1.42 2.822 0.874 0.695 1.994 0.859 3.086 0.729 0.86-0.103 1.427-0.481 2.022-1.078 0.001 0.058 0.002 0.117 0.003 0.177 0.016 0.809 0.035 1.788-0.574 2.39-0.41 0.404-0.996 0.49-1.551 0.479-0.599-0.012-1.203-0.149-1.629-0.597-0.121-0.127-0.2-0.285-0.278-0.44-0.014-0.027-0.027-0.055-0.041-0.082-0.217-0.001-0.443-0.008-0.672-0.015-0.555-0.018-1.128-0.037-1.646 0.039-0.045 0.117-0.012 0.244 0.020 0.365 0.006 0.024 0.013 0.048 0.018 0.071 0.309 0.913 0.969 1.617 1.837 2.051 1.234 0.617 2.989 0.671 4.291 0.241 0.957-0.316 1.783-0.956 2.235-1.856 0.174-0.353 0.285-0.733 0.33-1.123 0.090-0.714 0.082-1.465 0.074-2.202-0.003-0.268-0.005-0.534-0.003-0.797l0.015-5.965c-0.238 0-0.476 0.001-0.714 0.002-0.557 0.002-1.114 0.005-1.671-0.002l-0.001 0.781c-0.875-0.712-1.753-1.070-2.905-0.983-0.010 0.001-0.020 0.002-0.030 0.003zM24.416 5.155c0.464-0.039 0.949 0.042 1.349 0.284 0.457 0.277 0.74 0.726 0.865 1.234 0.179 0.729 0.167 1.729-0.248 2.378-0.33 0.516-0.806 0.71-1.385 0.83-0.512 0.056-1.040-0.009-1.475-0.303-0.512-0.346-0.789-0.914-0.892-1.504-0.124-0.714-0.039-1.55 0.403-2.147 0.344-0.464 0.82-0.689 1.383-0.772z"></path>
<path fill="#fff" style="fill: var(--color1, #fff)" d="M39.947 20.386c-0.76-0.619-1.71-0.85-2.681-0.827-1.136 0.087-1.822 0.422-2.572 1.26l-0.004-1.065-2.418 0.001 0.001 12.089 2.46-0.002-0.004-1.782 0.004-2.256c0.891 0.731 1.844 1.104 3.016 1.003 1.032-0.088 1.934-0.551 2.601-1.334 0.933-1.095 1.207-2.617 1.071-4.008-0.113-1.151-0.549-2.323-1.475-3.078zM36.607 21.551c0.489-0.051 1.014 0.061 1.416 0.346 0.552 0.39 0.814 1.030 0.904 1.673 0.117 0.837 0.033 1.819-0.518 2.502-0.377 0.468-0.831 0.664-1.415 0.742-0.509 0.049-1.066-0.066-1.483-0.365-0.476-0.34-0.727-0.858-0.818-1.419-0.138-0.848-0.114-2.001 0.432-2.713 0.377-0.492 0.881-0.695 1.482-0.767z"></path>
<path fill="#fff" style="fill: var(--color1, #fff)" d="M30.886 23.817c-0.201-2.57-2.475-4.494-5.082-4.3-2.613 0.194-4.57 2.442-4.369 5.018s2.485 4.502 5.097 4.299c2.606-0.202 4.554-2.447 4.353-5.017zM25.953 21.462c0.453-0.052 0.956 0.060 1.345 0.291 0.532 0.315 0.857 0.849 0.998 1.434 0.204 0.848 0.167 1.954-0.322 2.707-0.354 0.545-0.837 0.804-1.462 0.933-0.569 0.023-1.074-0.022-1.558-0.353-0.54-0.369-0.831-0.974-0.939-1.597-0.145-0.84-0.078-1.867 0.448-2.576 0.375-0.505 0.879-0.745 1.491-0.838z"></path>
<path fill="#fff" style="fill: var(--color1, #fff)" d="M4.189 16.522c0.183-0.025 0.381-0.022 0.566-0.028 1.346-0.043 2.79 0.186 3.802 1.137 0.74 0.695 0.958 1.528 0.978 2.506l-2.437 0.009c-0.028-0.481-0.101-0.865-0.482-1.208-0.509-0.458-1.271-0.567-1.936-0.534-0.523 0.026-1.068 0.167-1.421 0.574-0.257 0.296-0.341 0.68-0.298 1.061 0.042 0.368 0.23 0.66 0.539 0.868 0.483 0.324 1.101 0.446 1.662 0.57 1.234 0.273 2.774 0.489 3.764 1.32 0.607 0.51 0.89 1.186 0.947 1.959 0.070 0.945-0.186 1.831-0.826 2.548-0.891 0.996-2.219 1.4-3.524 1.484-1.441 0.098-3.034-0.184-4.161-1.132-0.827-0.695-1.177-1.585-1.261-2.633l2.483-0.004c0.113 0.52 0.305 0.953 0.74 1.288 0.598 0.461 1.439 0.553 2.173 0.472 0.573-0.063 1.175-0.284 1.533-0.751 0.223-0.291 0.302-0.651 0.252-1.010-0.051-0.37-0.264-0.671-0.578-0.875-0.354-0.23-0.792-0.343-1.197-0.449-1.335-0.35-2.937-0.465-4.050-1.333-0.602-0.469-0.953-1.109-1.042-1.861-0.108-0.925 0.073-1.793 0.67-2.53 0.747-0.923 1.956-1.318 3.105-1.449z"></path>
<path fill="#fff" style="fill: var(--color1, #fff)" d="M37.851 3.877c-0.874-0.562-2.028-0.661-3.044-0.623-1.099 0.072-2.383 0.321-3.14 1.189-0.405 0.464-0.558 1.023-0.583 1.622l2.271 0.009c0.247-0.489 0.549-0.832 1.097-1.003 0.497-0.155 1.146-0.155 1.608 0.095 0.267 0.145 0.481 0.393 0.567 0.684 0.047 0.159 0.061 0.33 0.075 0.496 0.002 0.027 0.004 0.053 0.007 0.080-0.155 0.171-0.293 0.289-0.509 0.378-0.512 0.212-1.125 0.251-1.708 0.289-0.203 0.013-0.402 0.026-0.593 0.046-1.708 0.178-3.299 0.8-3.173 2.792 0.025 0.401 0.132 0.748 0.306 1.109 0.445 0.701 1.045 1.137 1.867 1.318 0.996 0.219 2.201 0.116 3.076-0.433 0.302-0.189 0.555-0.425 0.798-0.682 0.050 0.346 0.119 0.678 0.206 1.017l2.287-0.004c-0.252-1.19-0.233-2.424-0.214-3.646 0.005-0.33 0.010-0.658 0.010-0.985-0-0.113 0.001-0.228 0.002-0.344 0.006-0.725 0.012-1.508-0.223-2.179-0.18-0.514-0.53-0.928-0.988-1.223zM36.633 8.099l0.069 0.037c0.099 0.507-0.029 1.177-0.294 1.612-0.29 0.478-0.76 0.838-1.311 0.968-0.505 0.119-0.953 0.054-1.391-0.219-0.182-0.162-0.328-0.331-0.405-0.565-0.088-0.27-0.073-0.596 0.065-0.848 0.307-0.559 1.407-0.705 2.319-0.826 0.369-0.049 0.706-0.094 0.949-0.16z"></path>
<path fill="#fff" style="fill: var(--color1, #fff)" d="M11.394 16.423h2.446l0.002 4.473c0.111-0.142 0.222-0.285 0.348-0.414 0.621-0.637 1.47-0.921 2.352-0.937 0.915-0.016 1.872 0.217 2.538 0.867 0.422 0.411 0.698 0.953 0.827 1.521 0.183 0.809 0.090 1.73 0.090 2.558l0.001 4.073-2.444 0.001c-0.020-1.091-0.002-2.185-0.002-3.277-0.002-0.881 0.221-2.5-0.405-3.196-0.286-0.318-0.69-0.45-1.11-0.472-0.57-0.030-1.206 0.042-1.636 0.447-0.266 0.251-0.425 0.592-0.499 0.944-0.15 0.71-0.067 1.53-0.064 2.253l0.002 3.3-2.447 0.001c-0.026-1.374-0.002-2.753-0.002-4.127l0.002-8.014z"></path>
<path fill="#fff" style="fill: var(--color1, #fff)" d="M46.18 3.251c0.136-0.010 0.272-0.016 0.409-0.016 0.879-0.005 1.689 0.249 2.321 0.87 0.408 0.406 0.693 0.917 0.822 1.475 0.198 0.836 0.093 1.808 0.093 2.667l0.005 4.010h-2.427l0.003-3.639c0-0.658 0.051-1.371-0.039-2.023-0.038-0.278-0.104-0.552-0.273-0.783-0.241-0.33-0.646-0.528-1.051-0.572-0.662-0.073-1.241 0.029-1.777 0.428-0.267 0.296-0.388 0.548-0.465 0.937-0.127 0.636-0.055 1.374-0.054 2.021l0.006 3.631-2.501 0.001 0.004-8.808 2.409 0.001c0.001 0.385 0.005 0.77 0.011 1.155 0.059-0.077 0.119-0.153 0.18-0.228 0.602-0.739 1.392-1.026 2.323-1.127z"></path>
<path fill="#fff" style="fill: var(--color1, #fff)" d="M60.406 3.252c1.007-0.061 2.014 0.105 2.887 0.625 1.017 0.606 1.555 1.491 1.836 2.606-0.809-0.010-1.617-0.010-2.426-0.002-0.188-0.437-0.454-0.815-0.86-1.083-0.42-0.278-0.945-0.395-1.442-0.286-0.573 0.125-1.050 0.466-1.362 0.955-0.495 0.776-0.544 1.919-0.321 2.789 0.157 0.613 0.506 1.193 1.076 1.511 0.468 0.261 1.076 0.32 1.59 0.165 0.67-0.203 1.043-0.738 1.342-1.323l2.354-0.002c-0.168 0.655-0.396 1.249-0.833 1.779-0.731 0.887-1.807 1.359-2.946 1.475-1.257 0.128-2.521-0.158-3.508-0.958-0.971-0.785-1.512-1.931-1.62-3.154-0.113-1.28 0.158-2.576 1.013-3.576 0.828-0.967 1.964-1.411 3.218-1.522z"></path>
<path fill="#fff" style="fill: var(--color1, #fff)" d="M18.531 3.296c0.226-0.014 0.452 0.013 0.677 0.032l-0.001 2.251-0.363-0.003c-0.805-0.002-1.717 0.050-2.313 0.661-0.273 0.28-0.427 0.627-0.51 1.002-0.147 0.661-0.073 1.42-0.070 2.096l0.005 2.921c-0.72 0.002-1.713 0.087-2.408-0.019-0.071-0.1-0.051-0.198-0.055-0.317l0-8.468 2.415-0.001c0.011 0.409 0.026 0.817 0.045 1.225 0.095-0.152 0.195-0.295 0.312-0.431 0.564-0.66 1.432-0.877 2.266-0.949z"></path>
<path fill="#fff" style="fill: var(--color1, #fff)" d="M52.085 3.45l2.49 0.002-0.003 5.833c0 0.984 0.056 1.992-0.011 2.972l-2.484 0.001c0.040-1.143 0.018-2.292 0.018-3.436l-0.010-5.372z"></path>
<path fill="#fff" style="fill: var(--color1, #fff)" d="M52.023 0.026l2.759-0.002c-0.006 0.679-0.005 1.358 0.002 2.037l-2.761 0.001v-2.036z"></path>
</symbol>
<symbol id="icon-phone" viewBox="0 0 32 32">
<path d="M23.609 16.391c-0.124-0.124-0.271-0.222-0.432-0.289s-0.335-0.102-0.51-0.102c-0.175 0-0.348 0.035-0.51 0.102s-0.309 0.165-0.433 0.289l-2.125 2.125c-0.985-0.293-2.824-0.96-3.989-2.125s-1.832-3.004-2.125-3.989l2.125-2.125c0.124-0.124 0.222-0.271 0.289-0.432s0.102-0.335 0.102-0.51-0.034-0.348-0.102-0.51c-0.067-0.162-0.165-0.309-0.289-0.432l-5.333-5.333c-0.124-0.124-0.271-0.222-0.432-0.289s-0.335-0.102-0.51-0.102c-0.175 0-0.348 0.035-0.51 0.102s-0.309 0.165-0.432 0.289l-3.616 3.616c-0.507 0.507-0.792 1.203-0.781 1.913 0.031 1.899 0.533 8.493 5.731 13.691s11.792 5.699 13.692 5.731h0.037c0.704 0 1.369-0.277 1.873-0.781l3.616-3.616c0.124-0.124 0.222-0.271 0.289-0.432s0.102-0.335 0.102-0.51c0-0.175-0.035-0.349-0.102-0.51s-0.165-0.309-0.289-0.432l-5.333-5.335zM23.44 25.34c-1.664-0.028-7.357-0.475-11.831-4.949-4.488-4.488-4.923-10.201-4.949-11.832l2.673-2.673 3.448 3.448-1.724 1.724c-0.157 0.157-0.272 0.35-0.335 0.562s-0.073 0.437-0.027 0.654c0.032 0.153 0.815 3.789 3.028 6.003s5.849 2.996 6.003 3.028c0.217 0.047 0.442 0.038 0.654-0.025s0.406-0.179 0.562-0.336l1.725-1.724 3.448 3.448-2.675 2.673z"></path>
</symbol>
<symbol id="icon-planet" viewBox="0 0 32 32">
<path fill="#fff" style="fill: var(--color1, #fff)" d="M6.572 25.428c2.527 2.527 5.873 3.917 9.428 3.917s6.903-1.391 9.428-3.917c5.199-5.199 5.199-13.657 0-18.857-2.525-2.525-5.875-3.917-9.428-3.917s-6.903 1.392-9.428 3.919c-5.199 5.197-5.199 13.657 0 18.856zM16.412 5.341c2.227 0.080 4.371 0.863 6.125 2.237l-6.537 6.536-1.947-1.947c1.548-1.972 2.389-4.411 2.359-6.827zM12.147 10.261l-2.683-2.683c1.259-0.987 2.726-1.676 4.291-2.013-0.020 1.648-0.593 3.303-1.608 4.696zM10.248 12.133c-1.358 0.928-2.967 1.42-4.612 1.409 0.346-1.483 1.010-2.874 1.944-4.077l2.668 2.668zM5.348 16.195c0.103 0.003 0.205 0.019 0.308 0.019 2.346 0.007 4.63-0.754 6.503-2.168l1.956 1.955-6.535 6.535c-1.41-1.816-2.193-4.041-2.232-6.34zM21.74 19.855c1.389-1.011 3.040-1.584 4.677-1.608-0.334 1.562-1.016 3.028-1.996 4.289l-2.681-2.681zM22.536 24.421c-1.202 0.94-2.594 1.608-4.079 1.96-0.015-1.651 0.477-3.267 1.409-4.629l2.669 2.669zM15.811 26.669c-2.305-0.037-4.534-0.826-6.348-2.248l6.537-6.536 1.951 1.951c-1.471 1.925-2.212 4.355-2.14 6.833zM26.643 15.589c-2.409-0.024-4.844 0.813-6.811 2.357l-1.947-1.947 6.535-6.535c1.364 1.758 2.141 3.9 2.223 6.124z"></path>
</symbol>
<symbol id="icon-restaurant" viewBox="0 0 32 32">
<path fill="#fff" style="fill: var(--color1, #fff)" d="M16 13.333h-2.667v-9.333h-2.667v9.333h-2.667v-9.333h-2.667v10.667c0 2.205 1.795 4 4 4h1.333v9.333h2.667v-9.333h1.333c2.205 0 4-1.795 4-4v-10.667h-2.667v9.333zM25.333 4h-1.333c-1.545 0-2.667 1.683-2.667 4v10.667h2.667v9.333h2.667v-22.667c0-0.354-0.14-0.693-0.391-0.943s-0.589-0.391-0.943-0.391z"></path>
</symbol>
<symbol id="icon-social-x" viewBox="0 0 32 32">
<path fill="#fff" style="fill: var(--color1, #fff)" d="M22.901 5.656h3.68l-8.040 9.037 9.459 12.297h-7.406l-5.801-7.458-6.637 7.458h-3.682l8.6-9.666-9.074-11.668h7.594l5.243 6.817 6.064-6.817zM21.61 24.823h2.039l-13.163-17.115h-2.188l13.312 17.115z"></path>
</symbol>
<symbol id="icon-up-arrow" viewBox="0 0 32 32">
<path fill="#fff" style="fill: var(--color1, #fff); stroke: var(--color1, #fff)" stroke="#fff" stroke-linejoin="miter" stroke-linecap="butt" stroke-miterlimit="4" stroke-width="1" d="M8.884 20.53c-0.098 0.098-0.256 0.098-0.354 0l-0.354-0.354c-0.098-0.098-0.098-0.256 0-0.354l7.646-7.646c0.098-0.098 0.256-0.098 0.354 0l7.646 7.646c0.098 0.098 0.098 0.256 0 0.354l-0.354 0.354c-0.098 0.098-0.256 0.098-0.354 0l-7.116-7.116-7.116 7.116z"></path>
</symbol>
<symbol id="icon-youtube" viewBox="0 0 32 32">
<path fill="#fff" style="fill: var(--color1, #fff)" d="M28.791 9.604c-0.152-0.563-0.449-1.077-0.861-1.49s-0.925-0.711-1.489-0.864c-2.088-0.573-10.441-0.583-10.441-0.583s-8.352-0.009-10.441 0.539c-0.563 0.16-1.075 0.462-1.487 0.878s-0.711 0.929-0.867 1.493c-0.551 2.088-0.556 6.419-0.556 6.419s-0.005 4.352 0.541 6.419c0.307 1.143 1.207 2.045 2.351 2.353 2.109 0.573 10.44 0.583 10.44 0.583s8.353 0.009 10.441-0.537c0.563-0.153 1.077-0.45 1.49-0.862s0.712-0.925 0.866-1.488c0.552-2.087 0.556-6.416 0.556-6.416s0.027-4.353-0.543-6.441zM13.328 20.007l0.007-8 6.943 4.007-6.949 3.993z"></path>
</symbol>
</defs>
</svg>
